<svg width="0" height="0" class="hidden">
  <symbol version="1.1" id="thumb" xmlns="http://www.w3.org/2000/svg" xmlns:xlink="http://www.w3.org/1999/xlink" x="0px" y="0px" xml:space="preserve" viewBox="0 0 28.069 28.068">
    <g>
      <path d="M22.984,16.959c0-0.888-0.468-1.637-1.142-2.115c0.674-0.48,1.142-1.229,1.142-2.118c0-1.459-1.187-2.646-2.646-2.646
		h-5.203V2.645C15.135,1.186,13.711,0,11.961,0S8.788,1.186,8.788,2.645v7.563c-2.117,0.483-3.703,2.373-3.703,4.634v8.465
		c0,2.625,2.136,4.762,4.761,4.762h10.493c1.459,0,2.646-1.186,2.646-2.645c0-0.889-0.468-1.638-1.142-2.117
		c0.674-0.479,1.142-1.229,1.142-2.116s-0.468-1.636-1.142-2.116C22.516,18.596,22.984,17.848,22.984,16.959z M9.847,2.646
		c0-0.875,0.949-1.587,2.116-1.587s2.116,0.712,2.116,1.587v7.435H9.847V2.646z M20.338,18.546h-8.465
		c-0.292,0-0.529,0.237-0.529,0.529s0.237,0.528,0.529,0.528h8.465c0.875,0,1.588,0.713,1.588,1.588s-0.713,1.587-1.588,1.587
		h-8.465c-0.292,0-0.529,0.235-0.529,0.528s0.237,0.528,0.529,0.528h8.465c0.875,0,1.588,0.712,1.588,1.589
		c0,0.875-0.713,1.586-1.588,1.586H9.847c-2.041,0-3.703-1.662-3.703-3.703v-8.465c0-2.042,1.662-3.704,3.703-3.704h10.492
		c0.875,0,1.588,0.712,1.588,1.587s-0.713,1.587-1.588,1.587h-8.465c-0.292,0-0.529,0.236-0.529,0.529
		c0,0.291,0.237,0.527,0.529,0.527h8.465c0.875,0,1.588,0.712,1.588,1.587S21.213,18.546,20.338,18.546z"></path>
    </g>
    <g></g>
    <g></g>
    <g></g>
    <g></g>
    <g></g>
    <g></g>
    <g></g>
    <g></g>
    <g></g>
    <g></g>
    <g></g>
    <g></g>
    <g></g>
    <g></g>
    <g></g>
  </symbol>
  <symbol version="1.1" id="star" xmlns="http://www.w3.org/2000/svg" xmlns:xlink="http://www.w3.org/1999/xlink" x="0px" y="0px" xml:space="preserve" viewBox="0 0 47.94 47.94">
    <path d="M26.285,2.486l5.407,10.956c0.376,0.762,1.103,1.29,1.944,1.412l12.091,1.757
	c2.118,0.308,2.963,2.91,1.431,4.403l-8.749,8.528c-0.608,0.593-0.886,1.448-0.742,2.285l2.065,12.042
	c0.362,2.109-1.852,3.717-3.746,2.722l-10.814-5.685c-0.752-0.395-1.651-0.395-2.403,0l-10.814,5.685
	c-1.894,0.996-4.108-0.613-3.746-2.722l2.065-12.042c0.144-0.837-0.134-1.692-0.742-2.285l-8.749-8.528
	c-1.532-1.494-0.687-4.096,1.431-4.403l12.091-1.757c0.841-0.122,1.568-0.65,1.944-1.412l5.407-10.956
	C22.602,0.567,25.338,0.567,26.285,2.486z"></path>
    <g></g>
    <g></g>
    <g></g>
    <g></g>
    <g></g>
    <g></g>
    <g></g>
    <g></g>
    <g></g>
    <g></g>
    <g></g>
    <g></g>
    <g></g>
    <g></g>
    <g></g>
  </symbol>
  <symbol xmlns="http://www.w3.org/2000/svg" viewBox="0 0 16 16" id="add">
    <path d="M8 2a1 1 0 00-1 1v4H3a1 1 0 100 2h4v4a1 1 0 102 0V9h4a1 1 0 100-2H9V3a1 1 0 00-1-1z" fill="#000"></path>
  </symbol>
  <symbol xmlns="http://www.w3.org/2000/svg" viewBox="0 0 24 24" id="arrow--right">
    <path fill-rule="evenodd" d="M13.22 19.03a.75.75 0 001.06 0l6.25-6.25a.75.75 0 000-1.06l-6.25-6.25a.75.75 0 10-1.06 1.06l4.97 4.97H3.75a.75.75 0 000 1.5h14.44l-4.97 4.97a.75.75 0 000 1.06z"></path>
  </symbol>
  <symbol version="1.1" id="menu" xmlns="http://www.w3.org/2000/svg" xmlns:xlink="http://www.w3.org/1999/xlink" x="0px" y="0px" xml:space="preserve" viewBox="0 0 92.833 92.833">
    <g>
      <g>
        <path d="M89.834,1.75H3c-1.654,0-3,1.346-3,3v13.334c0,1.654,1.346,3,3,3h86.833c1.653,0,3-1.346,3-3V4.75
			C92.834,3.096,91.488,1.75,89.834,1.75z"></path>
        <path d="M89.834,36.75H3c-1.654,0-3,1.346-3,3v13.334c0,1.654,1.346,3,3,3h86.833c1.653,0,3-1.346,3-3V39.75
			C92.834,38.096,91.488,36.75,89.834,36.75z"></path>
        <path d="M89.834,71.75H3c-1.654,0-3,1.346-3,3v13.334c0,1.654,1.346,3,3,3h86.833c1.653,0,3-1.346,3-3V74.75
			C92.834,73.095,91.488,71.75,89.834,71.75z"></path>
      </g>
    </g>
    <g></g>
    <g></g>
    <g></g>
    <g></g>
    <g></g>
    <g></g>
    <g></g>
    <g></g>
    <g></g>
    <g></g>
    <g></g>
    <g></g>
    <g></g>
    <g></g>
    <g></g>
  </symbol>
  <symbol version="1.1" id="rabbit" xmlns="http://www.w3.org/2000/svg" xmlns:xlink="http://www.w3.org/1999/xlink" x="0px" y="0px" xml:space="preserve" viewBox="0 0 512 512">
    <g>
      <g>
        <g>
          <path d="M430.623,404.372c-4.478-66.185-45.844-139.67-65.588-171.327c3.713-16.273,1.831-28.997-1.329-38.019
				c-4.102-11.712-10.958-19.233-14.89-22.824c-2.82-23.715-15.553-42.57-37.16-55.236c7.263-2.89,14.323-4.576,22.523-6.524
				c12.976-3.083,27.684-6.579,48.305-16.076c24.338-11.209,38.974-36.618,34.046-59.108C414.206,24.661,403.706,0.006,356.48,0
				c-0.004,0-0.007,0-0.012,0c-14.581,0-28.383,3.887-41.018,11.552c-3.701,2.244-4.881,7.065-2.636,10.765
				c2.245,3.7,7.066,4.882,10.765,2.636c10.15-6.158,21.216-9.28,32.889-9.28c0.003,0,0.006,0,0.009,0
				c25.24,0.003,41.547,8.365,44.742,22.942c3.333,15.214-7.776,33.449-25.292,41.516c-19.205,8.845-33.108,12.148-45.373,15.063
				c-12.27,2.916-23.88,5.687-37.292,13.258c-7.912-2.841-15.435-4.645-21.606-5.781c4.059-13.005,13.98-39.869,31.761-60.326
				c2.839-3.266,2.493-8.216-0.774-11.056c-3.266-2.84-8.217-2.493-11.056,0.774c-20.857,23.996-31.633,54.799-35.589,68.135
				c-2.802-9.423-9.023-27.598-19.813-45.959C215.332,18.755,187.443,0,155.533,0c-0.004,0-0.008,0-0.011,0
				c-47.226,0.006-57.727,24.661-60.049,35.26c-4.928,22.488,9.709,47.899,34.046,59.108c20.621,9.496,35.329,12.992,48.305,16.076
				c8.198,1.949,15.258,3.633,22.52,6.523c-21.605,12.666-34.337,31.523-37.158,55.237c-3.932,3.591-10.788,11.111-14.89,22.824
				c-3.161,9.023-5.042,21.748-1.328,38.023c-11.215,17.974-30.465,51.209-45.353,89.302l-0.635,1.628v0.031
				c-11.395,29.512-17.974,56.51-19.595,80.357c-18.402,10.61-30.826,30.473-30.826,53.198v42.417
				c0,6.626,5.391,12.016,12.016,12.016h98.72c0.586,0,1.158-0.056,1.722-0.138c1.055,0.082,2.103,0.138,3.122,0.138h74.836
				c4.328,0,7.837-3.509,7.837-7.837c0-4.328-3.509-7.837-7.837-7.837h-67.663v-38.76c0-33.843-27.533-61.376-61.376-61.376
				c-4.896,0-9.654,0.593-14.221,1.681c0.664-5.949,1.644-12.107,2.937-18.465c0.065,0.098,0.12,0.203,0.187,0.301
				c3.094,4.549,9.079,10.073,20.025,10.556c1.234,0.054,2.439,0.081,3.613,0.081c12.825,0,22.091-3.243,27.572-9.663
				c1.502-1.758,2.562-3.571,3.306-5.33c5.4,0.833,12.08,0.586,17.372-3.638c6.636-5.294,8.669-14.645,6.047-27.792
				c-0.847-4.245-4.978-6.998-9.219-6.151c-4.244,0.847-6.999,4.974-6.151,9.219c1.647,8.253,0.427,11.766-0.447,12.47
				c-1.601,1.289-7.1,0.426-10.734-1.162c-2.681-1.201-5.811-0.798-8.102,1.039c-2.293,1.838-3.365,4.804-2.776,7.683
				c0.003,0.017,0.151,1.889-1.213,3.487c-1.217,1.425-5.458,4.681-18.575,4.1c-4.777-0.211-6.653-2.091-7.752-3.706
				c-5.841-8.573-1.838-30.079,2.184-42.175l0.668-1.163v-0.624c11.708-29.708,26.115-56.325,36.89-74.527
				c2.405,5.394,5.384,11.066,9.068,17.029c32.301,52.312,90.905,52.914,93.385,52.914c2.48,0,61.094-0.602,93.394-52.913
				c3.685-5.965,6.665-11.641,9.072-17.037c10.992,18.543,25.412,45.188,36.986,74.57c0.069,0.346,0.153,0.692,0.272,1.034
				c3.469,10.057,8.626,33.772,2.427,42.886c-1.1,1.618-2.976,3.5-7.756,3.711c-12.869,0.574-17.19-2.58-18.451-3.959
				c-1.383-1.514-1.35-3.244-1.308-3.737c0.736-2.873-0.292-5.682-2.546-7.628c-2.283-1.97-5.568-2.205-8.332-0.998
				c-3.664,1.601-9.165,2.464-10.765,1.175c-0.875-0.704-2.094-4.217-0.448-12.47c0.847-4.244-1.908-8.372-6.152-9.218
				c-4.244-0.847-8.372,1.908-9.218,6.152c-2.623,13.147-0.588,22.497,6.048,27.791c5.294,4.225,11.973,4.471,17.372,3.638
				c0.743,1.759,1.805,3.573,3.306,5.33c5.482,6.42,14.745,9.663,27.572,9.663c1.174,0,2.38-0.027,3.613-0.082
				c10.946-0.483,16.932-6.007,20.025-10.556c0.096-0.141,0.178-0.292,0.271-0.435c1.262,6.232,2.26,12.448,2.94,18.607
				c-4.577-1.093-9.343-1.688-14.25-1.688c-33.843,0-61.376,27.533-61.376,61.376v38.758h-68.325c-4.328,0-7.837,3.509-7.837,7.837
				c0,4.328,3.509,7.837,7.837,7.837h75.494c0.162,0,0.329-0.006,0.493-0.008c0.057,0.001,0.114,0.008,0.171,0.008h107.079
				c4.328,0,7.837-3.509,7.837-7.837v-46.597C461.442,434.845,449.022,414.982,430.623,404.372z M111.935,411.863
				c25.201,0,45.703,20.502,45.703,45.703v38.76h-20.886v-32.653c0-4.328-3.509-7.837-7.837-7.837c-4.328,0-7.837,3.509-7.837,7.837
				v32.653H99.391v-32.653c0-4.328-3.509-7.837-7.837-7.837c-4.328,0-7.837,3.509-7.837,7.837v32.653H66.232v-38.76
				C66.232,432.365,86.734,411.863,111.935,411.863z M181.448,95.193c-12.266-2.914-26.168-6.218-45.374-15.062
				c-17.516-8.067-28.626-26.302-25.292-41.516c3.194-14.576,19.502-22.938,44.742-22.942c0.004,0,0.005,0,0.009,0
				c52.861,0,77.712,64.398,84.803,86.997c-6.169,1.137-13.69,2.939-21.599,5.779C205.326,100.881,193.717,98.11,181.448,95.193z
				 M336.055,261.201v0.001c-27.614,44.72-79.555,45.472-80.059,45.475c-0.52,0-52.29-0.52-80.049-45.475
				c-33.447-54.148-2.098-77.675-0.799-78.613l3.044-2.12l0.289-3.698c1.837-23.426,15.107-40.639,39.444-51.163
				c17.8-7.698,35.507-9.021,38.069-9.175c2.591,0.157,20.289,1.483,38.077,9.175c24.339,10.524,37.611,27.739,39.448,51.163
				l0.238,3.66l3.044,2.12C338.152,183.527,369.501,207.054,336.055,261.201z M445.768,496.327h-19.185v-32.653
				c0-4.328-3.509-7.837-7.837-7.837c-4.328,0-7.837,3.509-7.837,7.837v32.653h-21.687v-32.653c0-4.328-3.509-7.837-7.837-7.837
				s-7.837,3.509-7.837,7.837v32.653h-19.185v-38.76c0-25.201,20.502-45.703,45.703-45.703s45.702,20.503,45.702,45.703V496.327z"></path>
          <circle cx="285.954" cy="192.828" r="7.837"></circle>
          <path d="M292.687,227.027c-3.937-1.41-24.191-8.009-36.318,0.529c-0.123,0.087-0.247,0.176-0.371,0.267
				c-0.124-0.092-0.248-0.181-0.371-0.267c-12.126-8.539-32.38-1.939-36.318-0.529c-4.074,1.459-6.195,5.944-4.737,10.02
				c1.46,4.074,5.943,6.193,10.022,4.737c6.673-2.391,18.035-4.21,22.011-1.412c0.425,0.3,1.557,1.096,1.557,4.483
				c0,4.328,3.509,7.837,7.837,7.837c4.328,0,7.837-3.509,7.837-7.837c0-3.382,1.127-4.18,1.553-4.479
				c3.931-2.778,15.319-0.964,22.015,1.409c4.075,1.46,8.561-0.661,10.019-4.737C298.883,232.971,296.763,228.486,292.687,227.027z"></path>
          <circle cx="226.046" cy="192.828" r="7.837"></circle>
        </g>
      </g>
    </g>
    <g></g>
    <g></g>
    <g></g>
    <g></g>
    <g></g>
    <g></g>
    <g></g>
    <g></g>
    <g></g>
    <g></g>
    <g></g>
    <g></g>
    <g></g>
    <g></g>
    <g></g>
  </symbol>
  <symbol xmlns="http://www.w3.org/2000/svg" viewBox="0 0 24 24" id="setting">
    <path d="M19.9,12.66a1,1,0,0,1,0-1.32L21.18,9.9a1,1,0,0,0,.12-1.17l-2-3.46a1,1,0,0,0-1.07-.48l-1.88.38a1,1,0,0,1-1.15-.66l-.61-1.83A1,1,0,0,0,13.64,2h-4a1,1,0,0,0-1,.68L8.08,4.51a1,1,0,0,1-1.15.66L5,4.79A1,1,0,0,0,4,5.27L2,8.73A1,1,0,0,0,2.1,9.9l1.27,1.44a1,1,0,0,1,0,1.32L2.1,14.1A1,1,0,0,0,2,15.27l2,3.46a1,1,0,0,0,1.07.48l1.88-.38a1,1,0,0,1,1.15.66l.61,1.83a1,1,0,0,0,1,.68h4a1,1,0,0,0,.95-.68l.61-1.83a1,1,0,0,1,1.15-.66l1.88.38a1,1,0,0,0,1.07-.48l2-3.46a1,1,0,0,0-.12-1.17ZM18.41,14l.8.9-1.28,2.22-1.18-.24a3,3,0,0,0-3.45,2L12.92,20H10.36L10,18.86a3,3,0,0,0-3.45-2l-1.18.24L4.07,14.89l.8-.9a3,3,0,0,0,0-4l-.8-.9L5.35,6.89l1.18.24a3,3,0,0,0,3.45-2L10.36,4h2.56l.38,1.14a3,3,0,0,0,3.45,2l1.18-.24,1.28,2.22-.8.9A3,3,0,0,0,18.41,14ZM11.64,8a4,4,0,1,0,4,4A4,4,0,0,0,11.64,8Zm0,6a2,2,0,1,1,2-2A2,2,0,0,1,11.64,14Z"></path>
  </symbol>
</svg>